<svg id="784b7c5b-b056-4e07-945e-fdef3c3b2dd5" data-name="Capa 1" xmlns="http://www.w3.org/2000/svg" viewBox="0 0 720.1 432.04"><defs><style>.\31 7b33465-f52f-435f-9f2b-355f7fa2c666{fill:#0093c6;}.b4d0a5bf-ef06-4e33-85c4-1b13b353ce80{fill:#54bad8;}</style></defs><title>imagotipo</title><g id="f1b91e53-8095-47ca-8262-92f15e66ca71" data-name="Apertura"><polygon class="17b33465-f52f-435f-9f2b-355f7fa2c666" points="584.99 0 530.93 432.04 458.97 432.04 482.14 244.24 338.12 244.24 315 431.99 242.99 431.99 296.99 0.06 368.98 0 346.5 179.93 490.46 179.93 512.94 0 584.99 0"/></g><g id="9ec19bbf-7e68-47e3-a76f-f5afe2789b71" data-name="letra H"><polygon class="b4d0a5bf-ef06-4e33-85c4-1b13b353ce80" points="125.96 360.03 161.95 72.04 233.95 72.04 197.95 360.03 125.96 360.03"/><polygon class="b4d0a5bf-ef06-4e33-85c4-1b13b353ce80" points="0 215.94 26.97 0.05 98.96 0.05 71.95 215.94 98.96 432.04 26.97 432.04 0 215.94"/></g><polygon class="b4d0a5bf-ef06-4e33-85c4-1b13b353ce80" points="693.09 0 720.1 216.1 693.08 431.94 621.09 431.94 648.09 215.95 621.1 0 693.09 0"/></svg>